<svg width="34" height="34" viewBox="0 0 34 34" fill="none" xmlns="http://www.w3.org/2000/svg" xmlns:xlink="http://www.w3.org/1999/xlink">
<path d="M17.875,24.125C17.875,24.496 17.765,24.859 17.559,25.167C17.353,25.475 17.06,25.716 16.718,25.857C16.375,25.999 15.998,26.037 15.634,25.964C15.271,25.892 14.936,25.713 14.674,25.451C14.412,25.189 14.233,24.855 14.161,24.491C14.089,24.127 14.126,23.75 14.268,23.408C14.41,23.065 14.65,22.772 14.958,22.566C15.267,22.36 15.629,22.25 16,22.25C16.497,22.25 16.974,22.448 17.326,22.799C17.677,23.151 17.875,23.628 17.875,24.125ZM16,7.25C12.553,7.25 9.75,9.774 9.75,12.875L9.75,13.5C9.75,13.832 9.882,14.15 10.116,14.384C10.351,14.619 10.668,14.75 11,14.75C11.332,14.75 11.649,14.619 11.884,14.384C12.118,14.15 12.25,13.832 12.25,13.5L12.25,12.875C12.25,11.156 13.933,9.75 16,9.75C18.067,9.75 19.75,11.156 19.75,12.875C19.75,14.594 18.067,16 16,16C15.668,16 15.351,16.132 15.116,16.366C14.882,16.601 14.75,16.919 14.75,17.25L14.75,18.5C14.75,18.832 14.882,19.15 15.116,19.384C15.351,19.619 15.668,19.75 16,19.75C16.332,19.75 16.649,19.619 16.884,19.384C17.118,19.15 17.25,18.832 17.25,18.5L17.25,18.388C20.1,17.864 22.25,15.591 22.25,12.875C22.25,9.774 19.447,7.25 16,7.25ZM32.25,16C32.25,19.214 31.297,22.356 29.511,25.028C27.726,27.701 25.188,29.783 22.219,31.013C19.249,32.243 15.982,32.565 12.83,31.938C9.678,31.311 6.782,29.763 4.51,27.491C2.237,25.218 0.689,22.323 0.062,19.17C-0.565,16.018 -0.243,12.751 0.987,9.782C2.217,6.812 4.3,4.274 6.972,2.489C9.644,0.703 12.786,-0.25 16,-0.25C20.308,-0.245 24.439,1.468 27.485,4.515C30.532,7.561 32.245,11.692 32.25,16ZM29.75,16C29.75,13.281 28.944,10.622 27.433,8.361C25.922,6.1 23.774,4.338 21.262,3.297C18.749,2.256 15.985,1.984 13.318,2.514C10.65,3.045 8.2,4.355 6.277,6.278C4.354,8.201 3.045,10.651 2.514,13.318C1.984,15.985 2.256,18.75 3.297,21.262C4.337,23.775 6.1,25.922 8.361,27.433C10.622,28.944 13.281,29.75 16,29.75C19.645,29.746 23.14,28.296 25.718,25.718C28.296,23.141 29.746,19.646 29.75,16Z" fill="#38343D"/>
</svg>
