<svg width="14" height="24" viewBox="0 0 14 24" fill="none" xmlns="http://www.w3.org/2000/svg" xmlns:xlink="http://www.w3.org/1999/xlink">
<path d="M12.708,12.708L2.708,22.708C2.615,22.801 2.504,22.874 2.383,22.925C2.262,22.975 2.131,23.001 2,23.001C1.869,23.001 1.739,22.975 1.617,22.925C1.496,22.874 1.385,22.801 1.293,22.708C1.2,22.615 1.126,22.504 1.076,22.383C1.025,22.262 1,22.132 1,22C1,21.869 1.025,21.739 1.076,21.617C1.126,21.496 1.2,21.386 1.293,21.293L10.586,12L1.293,2.708C1.105,2.52 1,2.265 1,2C1,1.735 1.105,1.48 1.293,1.293C1.48,1.105 1.735,1 2,1C2.265,1 2.52,1.105 2.708,1.293L12.708,11.293C12.801,11.385 12.874,11.496 12.925,11.617C12.975,11.739 13.001,11.869 13.001,12C13.001,12.132 12.975,12.262 12.925,12.383C12.874,12.504 12.801,12.615 12.708,12.708Z" fill="#797085"/>
</svg>
