<svg width="290" height="290" viewBox="0 0 290 290" fill="none" xmlns="http://www.w3.org/2000/svg" xmlns:xlink="http://www.w3.org/1999/xlink">
<path d="M222.243,116.498C222.44,116.302 222.759,116.303 222.953,116.503C242.571,136.67 253.619,163.67 253.749,191.83C253.749,192.106 253.525,192.331 253.249,192.331L193.772,192.331C193.496,192.331 193.273,192.107 193.27,191.831C193.144,179.705 188.459,168.082 180.169,159.265C179.983,159.067 179.986,158.756 180.178,158.563L222.243,116.498ZM220.824,114.374C221.024,114.568 221.025,114.888 220.829,115.084L178.764,157.149C178.571,157.342 178.26,157.345 178.062,157.158C169.486,149.096 158.255,144.445 146.49,144.082C146.218,144.073 146,143.851 146,143.579L146,84.09C146,83.812 146.227,83.587 146.505,83.591C174.301,83.975 200.898,94.992 220.824,114.374ZM144,84.09C144,83.812 143.773,83.587 143.495,83.591C115.699,83.975 89.102,94.992 69.175,114.374C68.976,114.568 68.975,114.888 69.171,115.084L111.236,157.149C111.429,157.342 111.74,157.345 111.938,157.158C120.514,149.096 131.745,144.445 143.51,144.082C143.782,144.073 144,143.851 144,143.579L144,84.09ZM109.831,159.265C110.017,159.067 110.014,158.756 109.822,158.564L67.757,116.498C67.56,116.302 67.241,116.304 67.047,116.503C47.429,136.67 36.381,163.67 36.251,191.83C36.25,192.106 36.474,192.331 36.75,192.331L96.228,192.331C96.504,192.331 96.728,192.107 96.73,191.83C96.856,179.705 101.541,168.082 109.831,159.265Z" clip-rule="evenodd" fill-rule="evenodd" fill="#A7A3FF" fill-opacity="0.933"/>
<path d="M146,143.458C146,143.73 146.218,143.952 146.49,143.96C158.287,144.323 169.548,148.987 178.147,157.073C178.346,157.259 178.657,157.256 178.849,157.064L229.375,106.538C229.571,106.341 229.57,106.022 229.371,105.828C207.177,84.18 177.506,71.89 146.505,71.504C146.227,71.501 146,71.725 146,72.003L146,143.458Z" clip-rule="evenodd" fill-rule="evenodd" fill="#4D47C3"/>
</svg>
