<svg width="30" height="30" viewBox="0 0 30 30" fill="none" xmlns="http://www.w3.org/2000/svg" xmlns:xlink="http://www.w3.org/1999/xlink">
<path d="M11.5,27.75C11.5,28.082 11.368,28.4 11.134,28.634C10.899,28.869 10.582,29 10.25,29L1.5,29C0.837,29 0.201,28.737 -0.268,28.268C-0.737,27.799 -1,27.163 -1,26.5L-1,1.5C-1,0.837 -0.737,0.201 -0.268,-0.268C0.201,-0.736 0.837,-1 1.5,-1L10.25,-1C10.582,-1 10.899,-0.868 11.134,-0.634C11.368,-0.399 11.5,-0.081 11.5,0.25C11.5,0.582 11.368,0.9 11.134,1.134C10.899,1.369 10.582,1.5 10.25,1.5L1.5,1.5L1.5,26.5L10.25,26.5C10.582,26.5 10.899,26.632 11.134,26.866C11.368,27.101 11.5,27.419 11.5,27.75ZM28.634,13.116L22.384,6.866C22.15,6.631 21.832,6.5 21.5,6.5C21.168,6.5 20.85,6.631 20.616,6.866C20.381,7.1 20.249,7.419 20.249,7.75C20.249,8.082 20.381,8.4 20.616,8.635L24.733,12.75L10.25,12.75C9.918,12.75 9.601,12.882 9.366,13.116C9.132,13.351 9,13.669 9,14C9,14.332 9.132,14.65 9.366,14.884C9.601,15.119 9.918,15.25 10.25,15.25L24.733,15.25L20.616,19.366C20.381,19.6 20.249,19.918 20.249,20.25C20.249,20.582 20.381,20.9 20.616,21.135C20.85,21.369 21.168,21.501 21.5,21.501C21.832,21.501 22.15,21.369 22.384,21.135L28.634,14.885C28.751,14.769 28.843,14.631 28.906,14.479C28.969,14.327 29.001,14.165 29.001,14C29.001,13.836 28.969,13.673 28.906,13.522C28.843,13.37 28.751,13.232 28.634,13.116Z" fill="#AA2222"/>
</svg>
