<svg width="46" height="46" viewBox="0 0 46 46" fill="none" xmlns="http://www.w3.org/2000/svg" xmlns:xlink="http://www.w3.org/1999/xlink">
<path d="M44.08,22.523C44.08,20.892 43.934,19.324 43.662,17.818L22,17.818L22,26.715L34.378,26.715C33.845,29.59 32.225,32.026 29.789,33.657L29.789,39.428L37.222,39.428C41.571,35.424 44.08,29.527 44.08,22.523Z" clip-rule="evenodd" fill-rule="evenodd" fill="#4285F4"/>
<path d="M22,45C28.21,45 33.416,42.94 37.222,39.427L29.788,33.657C27.729,35.037 25.094,35.852 22,35.852C16.009,35.852 10.939,31.806 9.13,26.37L1.446,26.37L1.446,32.329C5.231,39.846 13.009,45 22,45Z" clip-rule="evenodd" fill-rule="evenodd" fill="#34A853"/>
<path d="M9.13,26.37C8.67,24.99 8.409,23.516 8.409,22C8.409,20.484 8.67,19.01 9.13,17.63L9.13,11.671L1.446,11.671C-0.111,14.776 -1,18.289 -1,22C-1,25.711 -0.111,29.224 1.446,32.329L9.13,26.37Z" clip-rule="evenodd" fill-rule="evenodd" fill="#FBBC05"/>
<path d="M22,8.148C25.377,8.148 28.408,9.308 30.792,11.587L37.389,4.99C33.406,1.279 28.199,-1 22,-1C13.009,-1 5.231,4.154 1.446,11.671L9.13,17.63C10.939,12.194 16.009,8.148 22,8.148Z" clip-rule="evenodd" fill-rule="evenodd" fill="#EA4335"/>
</svg>
