<svg width="34" height="36" viewBox="0 0 34 36" fill="none" xmlns="http://www.w3.org/2000/svg" xmlns:xlink="http://www.w3.org/1999/xlink">
<path d="M21,0.5C19.027,0.502 17.082,0.97 15.325,1.867C13.568,2.764 12.047,4.063 10.888,5.66C9.729,7.256 8.963,9.104 8.655,11.053C8.346,13.001 8.502,14.995 9.111,16.872L0.116,25.866C0,25.982 -0.092,26.12 -0.155,26.272C-0.218,26.423 -0.25,26.586 -0.25,26.75L-0.25,33C-0.25,33.332 -0.118,33.65 0.116,33.884C0.351,34.119 0.668,34.25 1,34.25L7.25,34.25C7.582,34.25 7.899,34.119 8.134,33.884C8.368,33.65 8.5,33.332 8.5,33L8.5,30.5L11,30.5C11.332,30.5 11.649,30.369 11.884,30.134C12.118,29.9 12.25,29.582 12.25,29.25L12.25,26.75L14.75,26.75C14.914,26.75 15.077,26.718 15.229,26.655C15.38,26.593 15.518,26.501 15.634,26.385L17.128,24.889C18.846,25.447 20.665,25.626 22.458,25.413C24.252,25.201 25.979,24.602 27.519,23.659C29.059,22.715 30.376,21.449 31.38,19.947C32.384,18.445 33.05,16.744 33.334,14.96C33.617,13.176 33.51,11.352 33.021,9.613C32.531,7.875 31.671,6.263 30.499,4.888C29.326,3.514 27.87,2.41 26.231,1.653C24.591,0.895 22.806,0.502 21,0.5ZM21,23C19.735,23.002 18.48,22.763 17.305,22.296C17.075,22.196 16.82,22.167 16.574,22.214C16.327,22.261 16.101,22.381 15.923,22.558L14.233,24.25L11,24.25C10.668,24.25 10.351,24.382 10.116,24.616C9.882,24.851 9.75,25.169 9.75,25.5L9.75,28L7.25,28C6.918,28 6.601,28.132 6.366,28.366C6.132,28.601 6,28.919 6,29.25L6,31.75L2.25,31.75L2.25,27.267L11.442,18.077C11.619,17.899 11.739,17.673 11.786,17.426C11.833,17.18 11.804,16.925 11.705,16.695C10.914,14.708 10.782,12.519 11.327,10.45C11.873,8.382 13.067,6.543 14.735,5.203C16.403,3.864 18.456,3.095 20.594,3.008C22.731,2.922 24.84,3.523 26.61,4.724C28.38,5.925 29.719,7.662 30.429,9.68C31.14,11.697 31.184,13.89 30.557,15.935C29.929,17.98 28.662,19.769 26.942,21.041C25.222,22.313 23.139,23 21,23ZM26,9.875C26,10.246 25.89,10.608 25.684,10.917C25.478,11.225 25.185,11.465 24.843,11.607C24.5,11.749 24.123,11.786 23.759,11.714C23.395,11.642 23.061,11.463 22.799,11.201C22.537,10.939 22.358,10.605 22.286,10.241C22.214,9.877 22.251,9.5 22.393,9.158C22.535,8.815 22.775,8.522 23.083,8.316C23.392,8.11 23.754,8 24.125,8C24.622,8 25.099,8.198 25.451,8.549C25.802,8.901 26,9.378 26,9.875Z" fill="#38343D"/>
</svg>
