<svg width="34" height="34" viewBox="0 0 34 34" fill="none" xmlns="http://www.w3.org/2000/svg" xmlns:xlink="http://www.w3.org/1999/xlink">
<path d="M16,-0.25C12.786,-0.25 9.644,0.703 6.972,2.489C4.3,4.274 2.217,6.812 0.987,9.782C-0.243,12.751 -0.565,16.018 0.062,19.17C0.689,22.323 2.237,25.218 4.51,27.491C6.782,29.763 9.678,31.311 12.83,31.938C15.982,32.565 19.249,32.243 22.219,31.013C25.188,29.783 27.726,27.701 29.511,25.028C31.297,22.356 32.25,19.214 32.25,16C32.245,11.692 30.532,7.561 27.485,4.515C24.439,1.468 20.308,-0.245 16,-0.25ZM7.575,26.86C8.479,25.445 9.725,24.281 11.197,23.475C12.67,22.669 14.321,22.247 16,22.247C17.679,22.247 19.33,22.669 20.803,23.475C22.275,24.281 23.521,25.445 24.425,26.86C22.016,28.733 19.052,29.75 16,29.75C12.948,29.75 9.984,28.733 7.575,26.86ZM11,14.75C11,13.761 11.293,12.795 11.843,11.972C12.392,11.15 13.173,10.509 14.087,10.131C15,9.752 16.006,9.653 16.975,9.846C17.945,10.039 18.836,10.515 19.536,11.215C20.235,11.914 20.711,12.805 20.904,13.775C21.097,14.745 20.998,15.75 20.619,16.664C20.241,17.577 19.6,18.358 18.778,18.907C17.956,19.457 16.989,19.75 16,19.75C14.674,19.75 13.402,19.223 12.464,18.286C11.527,17.348 11,16.076 11,14.75ZM26.275,25.127C24.881,23.107 22.921,21.544 20.641,20.635C21.865,19.67 22.759,18.348 23.197,16.852C23.636,15.355 23.597,13.76 23.087,12.287C22.576,10.814 21.619,9.537 20.349,8.632C19.079,7.728 17.559,7.243 16,7.243C14.441,7.243 12.921,7.728 11.651,8.632C10.381,9.537 9.424,10.814 8.913,12.287C8.403,13.76 8.364,15.355 8.803,16.852C9.241,18.348 10.135,19.67 11.359,20.635C9.079,21.544 7.119,23.107 5.725,25.127C3.963,23.146 2.812,20.698 2.409,18.077C2.007,15.457 2.37,12.777 3.456,10.358C4.542,7.94 6.304,5.887 8.529,4.446C10.755,3.006 13.349,2.24 16,2.24C18.651,2.24 21.245,3.006 23.471,4.446C25.696,5.887 27.458,7.94 28.544,10.358C29.63,12.777 29.993,15.457 29.591,18.077C29.188,20.698 28.037,23.146 26.275,25.127Z" fill="#38343D"/>
</svg>
